<?xml version="1.0" encoding="UTF-8"?>
<svg id="Layer_2" data-name="Layer 2" xmlns="http://www.w3.org/2000/svg" viewBox="0 0 93.69 81.16">
  <defs>
    <style>
      .cls-1 {
        fill: #12372a;
      }
    </style>
  </defs>
  <g id="Layer_7" data-name="Layer 7">
    <g>
      <g id="V">
        <path class="cls-1" d="M32.85,80.03h-5.13C18.49,53.37,9.25,26.71,0,0H11.27c6.37,19.34,12.74,38.69,19.11,58.03,.03,0,.06,0,.09,0,1.08-3.4,2.16-6.8,3.26-10.28,.09,.19,.15,.31,.19,.44,1.68,4.32,3.35,8.64,5.03,12.96,.1,.26,.1,.48,.01,.74-2,5.92-3.99,11.84-5.98,17.76-.04,.12-.08,.23-.13,.36Z"/>
        <path class="cls-1" d="M45.97,40.78c-.15-.4-.31-.81-.45-1.21-1.6-4.32-3.19-8.64-4.79-12.96-.12-.31-.12-.59-.02-.9,2.68-8.44,5.36-16.88,8.04-25.33,.04-.13,.09-.25,.13-.39h10.9c-4.58,13.62-9.15,27.21-13.72,40.8h-.09Z"/>
      </g>
      <g id="M">
        <path class="cls-1" d="M71.43,29.52c-6.49,17.21-12.98,34.42-19.47,51.64h-3.06c-6.67-17.2-13.34-34.4-20.01-51.6-.35,1.12-.55,2.27-.79,3.41-.25,1.17-.48,2.34-.72,3.5-.23,1.15-.47,2.3-.78,3.47-.05-.13-.1-.26-.14-.39-1.52-4.61-3.04-9.21-4.55-13.82-.68-2.07-1.36-4.14-2.05-6.21-.08-.23-.09-.44-.04-.68,1.22-5.74,2.43-11.48,3.65-17.22,.03-.16,.08-.31,.12-.49h5.56c7.08,19.16,14.17,38.34,21.25,57.53,.03,0,.05,0,.08,0,6.54-19.18,13.09-38.36,19.63-57.53h5.49c6.04,26.31,12.08,52.6,18.11,78.9-.34,.09-10.24,.13-11.57,.05-1.18-5.6-2.35-11.21-3.53-16.83-1.18-5.62-2.36-11.24-3.53-16.87-1.18-5.62-2.35-11.24-3.53-16.86-.03,0-.07,0-.1-.01Z"/>
        <path class="cls-1" d="M13.99,46.67c.18,.52,.37,1.04,.55,1.57,2.14,6.18,4.28,12.37,6.43,18.55,.08,.24,.1,.46,.05,.71-.83,4.05-1.66,8.1-2.48,12.14-.03,.14-.07,.29-.11,.45H6.83c2.36-11.15,4.72-22.29,7.08-33.43,.03,0,.06,0,.08,0Z"/>
      </g>
    </g>
  </g>
</svg>